<svg width="18" height="21" viewBox="0 0 18 21" fill="none" xmlns="http://www.w3.org/2000/svg">
<path d="M8.99806 20.432C6.93406 20.432 5.13406 20.12 3.59806 19.496C2.08606 18.872 0.946063 18.02 0.178063 16.94L3.16606 14.168C3.88606 14.96 4.72606 15.584 5.68606 16.04C6.67006 16.472 7.78606 16.688 9.03406 16.688C10.0901 16.688 10.9181 16.532 11.5181 16.22C12.1181 15.884 12.4181 15.38 12.4181 14.708C12.4181 14.18 12.2141 13.82 11.8061 13.628C11.3981 13.412 10.8341 13.244 10.1141 13.124L7.12606 12.656C6.28606 12.536 5.50606 12.356 4.78606 12.116C4.06606 11.852 3.44206 11.504 2.91406 11.072C2.38606 10.64 1.96606 10.112 1.65406 9.488C1.34206 8.864 1.18606 8.108 1.18606 7.22C1.18606 5.276 1.93006 3.752 3.41806 2.648C4.90606 1.544 6.99406 0.992 9.68206 0.992C11.5061 0.992 13.0541 1.244 14.3261 1.748C15.6221 2.228 16.6541 2.924 17.4221 3.836L14.7581 6.86C14.2061 6.26 13.4981 5.756 12.6341 5.348C11.7701 4.94 10.7261 4.736 9.50206 4.736C7.43806 4.736 6.40606 5.36 6.40606 6.608C6.40606 7.16 6.61006 7.544 7.01806 7.76C7.42606 7.952 7.99006 8.108 8.71006 8.228L11.6621 8.696C12.5021 8.816 13.2821 9.008 14.0021 9.272C14.7221 9.512 15.3461 9.848 15.8741 10.28C16.4261 10.712 16.8581 11.24 17.1701 11.864C17.4821 12.488 17.6381 13.244 17.6381 14.132C17.6381 16.076 16.8821 17.612 15.3701 18.74C13.8821 19.868 11.7581 20.432 8.99806 20.432Z" fill="black"/>
</svg>
